<svg xmlns="http://www.w3.org/2000/svg" viewBox="0 0 300 300" width="300" height="300">
  <rect width="300" height="300" fill="#0a0c14" rx="32"/>
  <defs>
    <pattern id="grid" width="40" height="40" patternUnits="userSpaceOnUse">
      <path d="M 40 0 L 0 0 0 40" fill="none" stroke="rgba(74,143,255,0.04)" stroke-width="1"/>
    </pattern>
  </defs>
  <rect width="300" height="300" fill="url(#grid)" rx="32"/>
  <circle cx="215" cy="88"  r="20" fill="#0f2040" stroke="#4a8fff" stroke-width="1.8" opacity="0.72"/>
  <circle cx="76"  cy="200" r="16" fill="#0f2040" stroke="#4a8fff" stroke-width="1.5" opacity="0.62"/>
  <line x1="205" y1="102" x2="158" y2="132" stroke="#4a8fff" stroke-width="1.2" opacity="0.38" stroke-linecap="round"/>
  <line x1="86"  y1="188" x2="118" y2="162" stroke="#4a8fff" stroke-width="1"   opacity="0.32" stroke-linecap="round"/>
  <circle cx="98" cy="102" r="24" fill="#185FA5" stroke="#4a8fff" stroke-width="2.4"/>
  <circle cx="98" cy="102" r="14" fill="#4a8fff"/>
  <line x1="118" y1="118" x2="134" y2="133" stroke="#4a8fff" stroke-width="3.2" stroke-linecap="round"/>
  <circle cx="154" cy="152" r="46" fill="#0d1a2e" stroke="#4a8fff" stroke-width="0.8" opacity="0.35"/>
  <circle cx="154" cy="152" r="36" fill="#0d1a2e" stroke="#4a8fff" stroke-width="2.8"/>
  <circle cx="154" cy="152" r="24" fill="#185FA5"/>
  <circle cx="154" cy="152" r="14" fill="#4a8fff"/>
  <line x1="180" y1="168" x2="196" y2="182" stroke="#4a8fff" stroke-width="2.4" opacity="0.85" stroke-linecap="round"/>
  <circle cx="206" cy="190" r="20" fill="#185FA5" stroke="#4a8fff" stroke-width="2.2"/>
  <circle cx="206" cy="190" r="12" fill="#4a8fff"/>
  <text x="150" y="258" text-anchor="middle"
        font-family="ui-monospace,SFMono-Regular,Menlo,Monaco,Consolas,monospace"
        font-size="28" font-weight="700" letter-spacing="0.04em" fill="#e8eaf2">Lex-Orchestra</text>
</svg>
